<?xml version="1.0" standalone="no"?>
<!DOCTYPE svg PUBLIC "-//W3C//DTD SVG 20010904//EN"
 "http://www.w3.org/TR/2001/REC-SVG-20010904/DTD/svg10.dtd">
<svg version="1.0" xmlns="http://www.w3.org/2000/svg"
 width="936.000000pt" height="936.000000pt" viewBox="0 0 936.000000 936.000000"
 preserveAspectRatio="xMidYMid meet">
<metadata>
Created by potrace 1.11, written by Peter Selinger 2001-2013
</metadata>
<g transform="translate(0.000000,936.000000) scale(0.100000,-0.100000)"
fill="#000000" stroke="none">
<path d="M4510 9344 c-30 -8 -79 -27 -108 -42 -73 -38 -2655 -1965 -2719
-2029 -103 -105 -192 -267 -234 -430 -18 -74 -19 -131 -19 -2183 0 -2097 0
-2107 21 -2186 23 -89 90 -238 140 -311 18 -26 56 -72 83 -101 43 -46 1362
-1042 1380 -1042 3 0 6 692 6 1538 0 1474 1 1539 19 1578 79 173 330 150 381
-35 6 -23 10 -622 10 -1716 l0 -1681 441 -329 c445 -332 505 -374 547 -375
l22 0 0 3363 0 3363 23 44 c13 26 40 57 65 75 38 26 52 30 112 30 60 0 74 -4
112 -30 25 -18 52 -49 66 -75 l22 -44 0 -3363 c0 -2764 2 -3363 13 -3363 27 0
132 73 520 363 l397 297 0 1717 c0 1650 1 1720 19 1759 35 78 134 132 213 117
71 -13 119 -47 152 -108 l21 -40 5 -1569 5 -1568 695 517 c382 284 717 538
743 563 103 101 209 288 247 438 20 76 20 121 20 2179 l0 2103 -26 88 c-45
156 -135 312 -240 417 -61 61 -2665 1998 -2731 2032 -26 13 -75 31 -108 40
-75 19 -241 19 -315 -1z"/>
</g>
</svg>
